<svg width="500" height="140" viewBox="0 0 500 140" fill="none" xmlns="http://www.w3.org/2000/svg">
<g clip-path="url(#clip0_287_1669)">
<path d="M77.7197 63.2891V72.4297H48.0322V63.2891H77.7197ZM51.5088 40.125V97H39.79V40.125H51.5088ZM86.0791 40.125V97H74.3994V40.125H86.0791ZM163.579 85.3203C163.579 84.513 163.345 83.7839 162.876 83.1328C162.407 82.4818 161.535 81.8828 160.259 81.3359C159.009 80.763 157.199 80.2422 154.829 79.7734C152.694 79.3047 150.701 78.7188 148.853 78.0156C147.03 77.2865 145.441 76.4141 144.087 75.3984C142.759 74.3828 141.717 73.1849 140.962 71.8047C140.207 70.3984 139.829 68.7969 139.829 67C139.829 65.2292 140.207 63.5625 140.962 62C141.743 60.4375 142.85 59.0573 144.282 57.8594C145.741 56.6354 147.511 55.6849 149.595 55.0078C151.704 54.3047 154.074 53.9531 156.704 53.9531C160.376 53.9531 163.527 54.5391 166.157 55.7109C168.813 56.8828 170.845 58.4974 172.251 60.5547C173.683 62.5859 174.399 64.9036 174.399 67.5078H163.149C163.149 66.4141 162.915 65.4375 162.446 64.5781C162.004 63.6927 161.3 63.0026 160.337 62.5078C159.399 61.987 158.175 61.7266 156.665 61.7266C155.415 61.7266 154.334 61.9479 153.423 62.3906C152.511 62.8073 151.808 63.3802 151.313 64.1094C150.845 64.8125 150.61 65.5938 150.61 66.4531C150.61 67.1042 150.741 67.6901 151.001 68.2109C151.287 68.7057 151.743 69.1615 152.368 69.5781C152.993 69.9948 153.8 70.3854 154.79 70.75C155.806 71.0885 157.056 71.401 158.54 71.6875C161.587 72.3125 164.308 73.1328 166.704 74.1484C169.1 75.138 171.001 76.4922 172.407 78.2109C173.813 79.9036 174.517 82.1302 174.517 84.8906C174.517 86.7656 174.1 88.4844 173.267 90.0469C172.433 91.6094 171.235 92.9766 169.673 94.1484C168.11 95.2943 166.235 96.1927 164.048 96.8438C161.886 97.4688 159.451 97.7812 156.743 97.7812C152.811 97.7812 149.478 97.0781 146.743 95.6719C144.035 94.2656 141.978 92.4818 140.571 90.3203C139.191 88.1328 138.501 85.8932 138.501 83.6016H149.165C149.217 85.138 149.608 86.375 150.337 87.3125C151.092 88.25 152.043 88.9271 153.188 89.3438C154.36 89.7604 155.623 89.9688 156.978 89.9688C158.436 89.9688 159.647 89.7734 160.61 89.3828C161.574 88.9661 162.303 88.4193 162.798 87.7422C163.319 87.0391 163.579 86.2318 163.579 85.3203ZM193.071 62.8594V113.25H181.821V54.7344H192.251L193.071 62.8594ZM219.829 75.3984V76.2188C219.829 79.2917 219.464 82.1432 218.735 84.7734C218.032 87.4036 216.991 89.6953 215.61 91.6484C214.23 93.5755 212.511 95.0859 210.454 96.1797C208.423 97.2474 206.079 97.7812 203.423 97.7812C200.845 97.7812 198.605 97.2604 196.704 96.2188C194.803 95.1771 193.201 93.7188 191.899 91.8438C190.623 89.9427 189.595 87.7422 188.813 85.2422C188.032 82.7422 187.433 80.0599 187.017 77.1953V75.0469C187.433 71.974 188.032 69.1615 188.813 66.6094C189.595 64.0312 190.623 61.8047 191.899 59.9297C193.201 58.0286 194.79 56.5573 196.665 55.5156C198.566 54.474 200.793 53.9531 203.345 53.9531C206.027 53.9531 208.384 54.4609 210.415 55.4766C212.472 56.4922 214.191 57.9505 215.571 59.8516C216.978 61.7526 218.032 64.0182 218.735 66.6484C219.464 69.2786 219.829 72.1953 219.829 75.3984ZM208.54 76.2188V75.3984C208.54 73.6016 208.384 71.9479 208.071 70.4375C207.785 68.901 207.316 67.5599 206.665 66.4141C206.04 65.2682 205.207 64.3828 204.165 63.7578C203.149 63.1068 201.912 62.7812 200.454 62.7812C198.918 62.7812 197.603 63.0286 196.509 63.5234C195.441 64.0182 194.569 64.7344 193.892 65.6719C193.214 66.6094 192.707 67.7292 192.368 69.0312C192.03 70.3333 191.821 71.8047 191.743 73.4453V78.875C191.873 80.8021 192.238 82.5339 192.837 84.0703C193.436 85.5807 194.36 86.7786 195.61 87.6641C196.86 88.5495 198.501 88.9922 200.532 88.9922C202.017 88.9922 203.267 88.6667 204.282 88.0156C205.298 87.3385 206.118 86.4141 206.743 85.2422C207.394 84.0703 207.85 82.7161 208.11 81.1797C208.397 79.6432 208.54 77.9896 208.54 76.2188ZM238.696 54.7344V97H227.407V54.7344H238.696ZM226.704 43.7188C226.704 42.0781 227.277 40.724 228.423 39.6562C229.569 38.5885 231.105 38.0547 233.032 38.0547C234.933 38.0547 236.457 38.5885 237.603 39.6562C238.774 40.724 239.36 42.0781 239.36 43.7188C239.36 45.3594 238.774 46.7135 237.603 47.7812C236.457 48.849 234.933 49.3828 233.032 49.3828C231.105 49.3828 229.569 48.849 228.423 47.7812C227.277 46.7135 226.704 45.3594 226.704 43.7188Z" fill="#FF3939"/>
<path d="M101.108 55.7065C101.109 51.8225 102.644 48.098 105.375 45.3524C108.106 42.6067 111.809 41.0649 115.67 41.066C119.53 41.0671 123.233 42.6111 125.962 45.3583C128.691 48.1055 130.224 51.8308 130.223 55.7148L130.214 85.0042C130.214 86.9273 129.837 88.8316 129.105 90.6081C128.373 92.3847 127.3 93.9988 125.948 95.3583C123.217 98.1039 119.514 99.6457 115.653 99.6446C111.792 99.6435 108.09 98.0996 105.361 95.3524C102.631 92.6052 101.099 88.8798 101.1 84.9958L101.108 55.7065ZM126.061 68.2637L126.064 55.7196C126.054 52.9534 124.954 50.3041 123.006 48.3516C121.058 46.399 118.421 45.3021 115.671 45.3009C112.922 45.2998 110.283 46.3944 108.334 48.3453C106.385 50.2962 105.283 52.9444 105.269 55.7106L105.263 68.2577L126.061 68.2637ZM123.623 79.2332C123.623 78.9583 123.569 78.6861 123.464 78.4322C123.359 78.1783 123.206 77.9476 123.013 77.7533C122.819 77.5591 122.59 77.405 122.337 77.2999C122.085 77.1948 121.814 77.1408 121.541 77.1409C121.268 77.141 120.997 77.1953 120.745 77.3006C120.493 77.4059 120.263 77.5601 120.07 77.7546C119.877 77.949 119.724 78.1798 119.619 78.4338C119.515 78.6878 119.461 78.96 119.461 79.2349L119.459 88.1105C119.459 88.3854 119.513 88.6575 119.618 88.9114C119.722 89.1653 119.876 89.396 120.069 89.5903C120.459 89.9827 120.989 90.203 121.54 90.2027C122.092 90.2025 122.621 89.9818 123.011 89.5891C123.401 89.1964 123.62 88.6638 123.62 88.1087L123.623 79.2332Z" fill="#FF3939"/>
<path d="M277.358 40.125V97H265.679V40.125H277.358ZM294.858 40.125V49.3047H248.452V40.125H294.858ZM370.952 113.25V63.3672L372.397 54.7344H382.28V113.25H370.952ZM344.233 76.2969V75.4766C344.233 72.2474 344.585 69.3177 345.288 66.6875C346.017 64.0312 347.085 61.7656 348.491 59.8906C349.897 57.9896 351.616 56.5312 353.647 55.5156C355.705 54.474 358.075 53.9531 360.757 53.9531C363.335 53.9531 365.561 54.474 367.436 55.5156C369.311 56.5573 370.887 58.0286 372.163 59.9297C373.465 61.8307 374.507 64.0703 375.288 66.6484C376.069 69.2266 376.668 72.0521 377.085 75.125V76.9219C376.694 79.8646 376.095 82.599 375.288 85.125C374.507 87.651 373.465 89.8646 372.163 91.7656C370.887 93.6667 369.298 95.151 367.397 96.2188C365.522 97.2604 363.283 97.7812 360.679 97.7812C358.048 97.7812 355.705 97.2474 353.647 96.1797C351.616 95.0859 349.897 93.5755 348.491 91.6484C347.085 89.7214 346.017 87.4557 345.288 84.8516C344.585 82.2214 344.233 79.3698 344.233 76.2969ZM355.483 75.4766V76.2969C355.483 78.0417 355.627 79.6823 355.913 81.2188C356.2 82.7292 356.655 84.0703 357.28 85.2422C357.931 86.4141 358.765 87.3385 359.78 88.0156C360.796 88.6667 362.046 88.9922 363.53 88.9922C365.588 88.9922 367.241 88.5495 368.491 87.6641C369.767 86.7526 370.705 85.5156 371.304 83.9531C371.929 82.3906 372.293 80.6068 372.397 78.6016V73.4844C372.319 71.8438 372.098 70.3724 371.733 69.0703C371.395 67.7422 370.874 66.6094 370.171 65.6719C369.494 64.7344 368.608 64.0182 367.515 63.5234C366.447 63.0026 365.145 62.7422 363.608 62.7422C362.15 62.7422 360.9 63.0677 359.858 63.7188C358.817 64.3698 357.97 65.2812 357.319 66.4531C356.694 67.599 356.226 68.9401 355.913 70.4766C355.627 72.013 355.483 73.6797 355.483 75.4766ZM416.147 86.8828V54.7344H427.397V97H416.811L416.147 86.8828ZM417.397 78.2109L420.718 78.1328C420.718 80.9453 420.392 83.5625 419.741 85.9844C419.09 88.3802 418.114 90.4635 416.811 92.2344C415.509 93.9792 413.869 95.3464 411.89 96.3359C409.91 97.2995 407.58 97.7812 404.897 97.7812C402.84 97.7812 400.939 97.4948 399.194 96.9219C397.476 96.3229 395.991 95.3984 394.741 94.1484C393.517 92.8724 392.554 91.2448 391.851 89.2656C391.173 87.2604 390.835 84.8516 390.835 82.0391V54.7344H402.085V82.1172C402.085 83.3672 402.228 84.4219 402.515 85.2812C402.827 86.1406 403.257 86.8438 403.804 87.3906C404.351 87.9375 404.989 88.3281 405.718 88.5625C406.473 88.7969 407.306 88.9141 408.218 88.9141C410.535 88.9141 412.358 88.4453 413.686 87.5078C415.041 86.5703 415.991 85.2943 416.538 83.6797C417.111 82.0391 417.397 80.2161 417.397 78.2109ZM455.444 97.7812C452.163 97.7812 449.22 97.2604 446.616 96.2188C444.012 95.151 441.798 93.6797 439.976 91.8047C438.179 89.9297 436.798 87.7552 435.835 85.2812C434.871 82.7812 434.39 80.125 434.39 77.3125V75.75C434.39 72.5469 434.845 69.6172 435.757 66.9609C436.668 64.3047 437.97 62 439.663 60.0469C441.382 58.0938 443.465 56.5964 445.913 55.5547C448.361 54.487 451.121 53.9531 454.194 53.9531C457.189 53.9531 459.845 54.4479 462.163 55.4375C464.481 56.4271 466.421 57.8333 467.983 59.6562C469.572 61.4792 470.77 63.6667 471.577 66.2188C472.384 68.7448 472.788 71.5573 472.788 74.6562V79.3438H439.194V71.8438H461.733V70.9844C461.733 69.4219 461.447 68.0286 460.874 66.8047C460.327 65.5547 459.494 64.5651 458.374 63.8359C457.254 63.1068 455.822 62.7422 454.077 62.7422C452.593 62.7422 451.317 63.0677 450.249 63.7188C449.181 64.3698 448.309 65.2812 447.632 66.4531C446.981 67.625 446.486 69.0052 446.147 70.5938C445.835 72.1562 445.679 73.875 445.679 75.75V77.3125C445.679 79.0052 445.913 80.5677 446.382 82C446.877 83.4323 447.567 84.6693 448.452 85.7109C449.364 86.7526 450.457 87.5599 451.733 88.1328C453.035 88.7057 454.507 88.9922 456.147 88.9922C458.179 88.9922 460.067 88.6016 461.811 87.8203C463.582 87.013 465.106 85.8021 466.382 84.1875L471.851 90.125C470.965 91.401 469.754 92.625 468.218 93.7969C466.707 94.9688 464.884 95.9323 462.749 96.6875C460.614 97.4167 458.179 97.7812 455.444 97.7812Z" fill="black"/>
<path fill-rule="evenodd" clip-rule="evenodd" d="M337.475 74.5C337.475 86.9268 327.462 97 315.109 97C302.757 97 292.743 86.9268 292.743 74.5C292.743 62.0733 302.757 52 315.109 52C327.462 52 337.475 62.0733 337.475 74.5ZM326.524 63.5796C326.733 63.7906 326.851 64.0767 326.851 64.375C326.851 64.6733 326.733 64.9594 326.524 65.1704L305.835 85.9829C305.624 86.1878 305.342 86.3012 305.049 86.2986C304.755 86.2961 304.475 86.1778 304.268 85.9692C304.06 85.7606 303.943 85.4784 303.94 85.1835C303.938 84.8885 304.05 84.6043 304.254 84.3921L324.942 63.5796C325.152 63.3687 325.436 63.2502 325.733 63.2502C326.029 63.2502 326.314 63.3687 326.524 63.5796Z" fill="black"/>
</g>
<defs>
<clipPath id="clip0_287_1669">
<rect width="500" height="140" fill="white"/>
</clipPath>
</defs>
</svg>
